<?xml version="1.0" encoding="utf-8" standalone="no"?>
<!DOCTYPE svg PUBLIC "-//W3C//DTD SVG 1.1//EN"
  "http://www.w3.org/Graphics/SVG/1.1/DTD/svg11.dtd">
<svg height="345.6pt" version="1.1" viewBox="0 0 460.8 345.6" width="460.8pt" xmlns="http://www.w3.org/2000/svg" xmlns:xlink="http://www.w3.org/1999/xlink">
 <metadata>
  <rdf:RDF xmlns:cc="http://creativecommons.org/ns#" xmlns:dc="http://purl.org/dc/elements/1.1/" xmlns:rdf="http://www.w3.org/1999/02/22-rdf-syntax-ns#">
   <cc:Work>
    <dc:type rdf:resource="http://purl.org/dc/dcmitype/StillImage"/>
    <dc:date>2021-10-04T16:40:28.554346</dc:date>
    <dc:format>image/svg+xml</dc:format>
    <dc:creator>
     <cc:Agent>
      <dc:title>Matplotlib v3.4.2, https://matplotlib.org/</dc:title>
     </cc:Agent>
    </dc:creator>
   </cc:Work>
  </rdf:RDF>
 </metadata>
 <defs>
  <style type="text/css">*{stroke-linecap:butt;stroke-linejoin:round;}</style>
 </defs>
 <g id="figure_1">
  <g id="patch_1">
   <path d="M 0 345.6 
L 460.8 345.6 
L 460.8 0 
L 0 0 
z
" style="fill:#ffffff;"/>
  </g>
  <g id="axes_1">
   <g id="patch_2">
    <path d="M 57.6 307.584 
L 414.72 307.584 
L 414.72 41.472 
L 57.6 41.472 
z
" style="fill:#ffffff;"/>
   </g>
   <g id="matplotlib.axis_1">
    <g id="xtick_1">
     <g id="line2d_1">
      <path clip-path="url(#pf713fe366a)" d="M 57.6 307.584 
L 57.6 41.472 
" style="fill:none;stroke:#b0b0b0;stroke-linecap:square;stroke-width:0.8;"/>
     </g>
     <g id="line2d_2">
      <defs>
       <path d="M 0 0 
L 0 3.5 
" id="m962c29e0e1" style="stroke:#000000;stroke-width:0.8;"/>
      </defs>
      <g>
       <use style="stroke:#000000;stroke-width:0.8;" x="57.6" xlink:href="#m962c29e0e1" y="307.584"/>
      </g>
     </g>
     <g id="text_1">
      <!-- 0 -->
      <g transform="translate(54.41875 322.182437)scale(0.1 -0.1)">
       <defs>
        <path d="M 2034 4250 
Q 1547 4250 1301 3770 
Q 1056 3291 1056 2328 
Q 1056 1369 1301 889 
Q 1547 409 2034 409 
Q 2525 409 2770 889 
Q 3016 1369 3016 2328 
Q 3016 3291 2770 3770 
Q 2525 4250 2034 4250 
z
M 2034 4750 
Q 2819 4750 3233 4129 
Q 3647 3509 3647 2328 
Q 3647 1150 3233 529 
Q 2819 -91 2034 -91 
Q 1250 -91 836 529 
Q 422 1150 422 2328 
Q 422 3509 836 4129 
Q 1250 4750 2034 4750 
z
" id="DejaVuSans-30" transform="scale(0.015625)"/>
       </defs>
       <use xlink:href="#DejaVuSans-30"/>
      </g>
     </g>
    </g>
    <g id="xtick_2">
     <g id="line2d_3">
      <path clip-path="url(#pf713fe366a)" d="M 125.720172 307.584 
L 125.720172 41.472 
" style="fill:none;stroke:#b0b0b0;stroke-linecap:square;stroke-width:0.8;"/>
     </g>
     <g id="line2d_4">
      <g>
       <use style="stroke:#000000;stroke-width:0.8;" x="125.720172" xlink:href="#m962c29e0e1" y="307.584"/>
      </g>
     </g>
     <g id="text_2">
      <!-- 20 -->
      <g transform="translate(119.357672 322.182437)scale(0.1 -0.1)">
       <defs>
        <path d="M 1228 531 
L 3431 531 
L 3431 0 
L 469 0 
L 469 531 
Q 828 903 1448 1529 
Q 2069 2156 2228 2338 
Q 2531 2678 2651 2914 
Q 2772 3150 2772 3378 
Q 2772 3750 2511 3984 
Q 2250 4219 1831 4219 
Q 1534 4219 1204 4116 
Q 875 4013 500 3803 
L 500 4441 
Q 881 4594 1212 4672 
Q 1544 4750 1819 4750 
Q 2544 4750 2975 4387 
Q 3406 4025 3406 3419 
Q 3406 3131 3298 2873 
Q 3191 2616 2906 2266 
Q 2828 2175 2409 1742 
Q 1991 1309 1228 531 
z
" id="DejaVuSans-32" transform="scale(0.015625)"/>
       </defs>
       <use xlink:href="#DejaVuSans-32"/>
       <use x="63.623047" xlink:href="#DejaVuSans-30"/>
      </g>
     </g>
    </g>
    <g id="xtick_3">
     <g id="line2d_5">
      <path clip-path="url(#pf713fe366a)" d="M 193.840343 307.584 
L 193.840343 41.472 
" style="fill:none;stroke:#b0b0b0;stroke-linecap:square;stroke-width:0.8;"/>
     </g>
     <g id="line2d_6">
      <g>
       <use style="stroke:#000000;stroke-width:0.8;" x="193.840343" xlink:href="#m962c29e0e1" y="307.584"/>
      </g>
     </g>
     <g id="text_3">
      <!-- 40 -->
      <g transform="translate(187.477843 322.182437)scale(0.1 -0.1)">
       <defs>
        <path d="M 2419 4116 
L 825 1625 
L 2419 1625 
L 2419 4116 
z
M 2253 4666 
L 3047 4666 
L 3047 1625 
L 3713 1625 
L 3713 1100 
L 3047 1100 
L 3047 0 
L 2419 0 
L 2419 1100 
L 313 1100 
L 313 1709 
L 2253 4666 
z
" id="DejaVuSans-34" transform="scale(0.015625)"/>
       </defs>
       <use xlink:href="#DejaVuSans-34"/>
       <use x="63.623047" xlink:href="#DejaVuSans-30"/>
      </g>
     </g>
    </g>
    <g id="xtick_4">
     <g id="line2d_7">
      <path clip-path="url(#pf713fe366a)" d="M 261.960515 307.584 
L 261.960515 41.472 
" style="fill:none;stroke:#b0b0b0;stroke-linecap:square;stroke-width:0.8;"/>
     </g>
     <g id="line2d_8">
      <g>
       <use style="stroke:#000000;stroke-width:0.8;" x="261.960515" xlink:href="#m962c29e0e1" y="307.584"/>
      </g>
     </g>
     <g id="text_4">
      <!-- 60 -->
      <g transform="translate(255.598015 322.182437)scale(0.1 -0.1)">
       <defs>
        <path d="M 2113 2584 
Q 1688 2584 1439 2293 
Q 1191 2003 1191 1497 
Q 1191 994 1439 701 
Q 1688 409 2113 409 
Q 2538 409 2786 701 
Q 3034 994 3034 1497 
Q 3034 2003 2786 2293 
Q 2538 2584 2113 2584 
z
M 3366 4563 
L 3366 3988 
Q 3128 4100 2886 4159 
Q 2644 4219 2406 4219 
Q 1781 4219 1451 3797 
Q 1122 3375 1075 2522 
Q 1259 2794 1537 2939 
Q 1816 3084 2150 3084 
Q 2853 3084 3261 2657 
Q 3669 2231 3669 1497 
Q 3669 778 3244 343 
Q 2819 -91 2113 -91 
Q 1303 -91 875 529 
Q 447 1150 447 2328 
Q 447 3434 972 4092 
Q 1497 4750 2381 4750 
Q 2619 4750 2861 4703 
Q 3103 4656 3366 4563 
z
" id="DejaVuSans-36" transform="scale(0.015625)"/>
       </defs>
       <use xlink:href="#DejaVuSans-36"/>
       <use x="63.623047" xlink:href="#DejaVuSans-30"/>
      </g>
     </g>
    </g>
    <g id="xtick_5">
     <g id="line2d_9">
      <path clip-path="url(#pf713fe366a)" d="M 330.080687 307.584 
L 330.080687 41.472 
" style="fill:none;stroke:#b0b0b0;stroke-linecap:square;stroke-width:0.8;"/>
     </g>
     <g id="line2d_10">
      <g>
       <use style="stroke:#000000;stroke-width:0.8;" x="330.080687" xlink:href="#m962c29e0e1" y="307.584"/>
      </g>
     </g>
     <g id="text_5">
      <!-- 80 -->
      <g transform="translate(323.718187 322.182437)scale(0.1 -0.1)">
       <defs>
        <path d="M 2034 2216 
Q 1584 2216 1326 1975 
Q 1069 1734 1069 1313 
Q 1069 891 1326 650 
Q 1584 409 2034 409 
Q 2484 409 2743 651 
Q 3003 894 3003 1313 
Q 3003 1734 2745 1975 
Q 2488 2216 2034 2216 
z
M 1403 2484 
Q 997 2584 770 2862 
Q 544 3141 544 3541 
Q 544 4100 942 4425 
Q 1341 4750 2034 4750 
Q 2731 4750 3128 4425 
Q 3525 4100 3525 3541 
Q 3525 3141 3298 2862 
Q 3072 2584 2669 2484 
Q 3125 2378 3379 2068 
Q 3634 1759 3634 1313 
Q 3634 634 3220 271 
Q 2806 -91 2034 -91 
Q 1263 -91 848 271 
Q 434 634 434 1313 
Q 434 1759 690 2068 
Q 947 2378 1403 2484 
z
M 1172 3481 
Q 1172 3119 1398 2916 
Q 1625 2713 2034 2713 
Q 2441 2713 2670 2916 
Q 2900 3119 2900 3481 
Q 2900 3844 2670 4047 
Q 2441 4250 2034 4250 
Q 1625 4250 1398 4047 
Q 1172 3844 1172 3481 
z
" id="DejaVuSans-38" transform="scale(0.015625)"/>
       </defs>
       <use xlink:href="#DejaVuSans-38"/>
       <use x="63.623047" xlink:href="#DejaVuSans-30"/>
      </g>
     </g>
    </g>
    <g id="xtick_6">
     <g id="line2d_11">
      <path clip-path="url(#pf713fe366a)" d="M 398.200858 307.584 
L 398.200858 41.472 
" style="fill:none;stroke:#b0b0b0;stroke-linecap:square;stroke-width:0.8;"/>
     </g>
     <g id="line2d_12">
      <g>
       <use style="stroke:#000000;stroke-width:0.8;" x="398.200858" xlink:href="#m962c29e0e1" y="307.584"/>
      </g>
     </g>
     <g id="text_6">
      <!-- 100 -->
      <g transform="translate(388.657108 322.182437)scale(0.1 -0.1)">
       <defs>
        <path d="M 794 531 
L 1825 531 
L 1825 4091 
L 703 3866 
L 703 4441 
L 1819 4666 
L 2450 4666 
L 2450 531 
L 3481 531 
L 3481 0 
L 794 0 
L 794 531 
z
" id="DejaVuSans-31" transform="scale(0.015625)"/>
       </defs>
       <use xlink:href="#DejaVuSans-31"/>
       <use x="63.623047" xlink:href="#DejaVuSans-30"/>
       <use x="127.246094" xlink:href="#DejaVuSans-30"/>
      </g>
     </g>
    </g>
    <g id="text_7">
     <!-- Variable values -->
     <g transform="translate(182.824375 338.899937)scale(0.14 -0.14)">
      <defs>
       <path d="M 1831 0 
L 50 4666 
L 709 4666 
L 2188 738 
L 3669 4666 
L 4325 4666 
L 2547 0 
L 1831 0 
z
" id="DejaVuSans-56" transform="scale(0.015625)"/>
       <path d="M 2194 1759 
Q 1497 1759 1228 1600 
Q 959 1441 959 1056 
Q 959 750 1161 570 
Q 1363 391 1709 391 
Q 2188 391 2477 730 
Q 2766 1069 2766 1631 
L 2766 1759 
L 2194 1759 
z
M 3341 1997 
L 3341 0 
L 2766 0 
L 2766 531 
Q 2569 213 2275 61 
Q 1981 -91 1556 -91 
Q 1019 -91 701 211 
Q 384 513 384 1019 
Q 384 1609 779 1909 
Q 1175 2209 1959 2209 
L 2766 2209 
L 2766 2266 
Q 2766 2663 2505 2880 
Q 2244 3097 1772 3097 
Q 1472 3097 1187 3025 
Q 903 2953 641 2809 
L 641 3341 
Q 956 3463 1253 3523 
Q 1550 3584 1831 3584 
Q 2591 3584 2966 3190 
Q 3341 2797 3341 1997 
z
" id="DejaVuSans-61" transform="scale(0.015625)"/>
       <path d="M 2631 2963 
Q 2534 3019 2420 3045 
Q 2306 3072 2169 3072 
Q 1681 3072 1420 2755 
Q 1159 2438 1159 1844 
L 1159 0 
L 581 0 
L 581 3500 
L 1159 3500 
L 1159 2956 
Q 1341 3275 1631 3429 
Q 1922 3584 2338 3584 
Q 2397 3584 2469 3576 
Q 2541 3569 2628 3553 
L 2631 2963 
z
" id="DejaVuSans-72" transform="scale(0.015625)"/>
       <path d="M 603 3500 
L 1178 3500 
L 1178 0 
L 603 0 
L 603 3500 
z
M 603 4863 
L 1178 4863 
L 1178 4134 
L 603 4134 
L 603 4863 
z
" id="DejaVuSans-69" transform="scale(0.015625)"/>
       <path d="M 3116 1747 
Q 3116 2381 2855 2742 
Q 2594 3103 2138 3103 
Q 1681 3103 1420 2742 
Q 1159 2381 1159 1747 
Q 1159 1113 1420 752 
Q 1681 391 2138 391 
Q 2594 391 2855 752 
Q 3116 1113 3116 1747 
z
M 1159 2969 
Q 1341 3281 1617 3432 
Q 1894 3584 2278 3584 
Q 2916 3584 3314 3078 
Q 3713 2572 3713 1747 
Q 3713 922 3314 415 
Q 2916 -91 2278 -91 
Q 1894 -91 1617 61 
Q 1341 213 1159 525 
L 1159 0 
L 581 0 
L 581 4863 
L 1159 4863 
L 1159 2969 
z
" id="DejaVuSans-62" transform="scale(0.015625)"/>
       <path d="M 603 4863 
L 1178 4863 
L 1178 0 
L 603 0 
L 603 4863 
z
" id="DejaVuSans-6c" transform="scale(0.015625)"/>
       <path d="M 3597 1894 
L 3597 1613 
L 953 1613 
Q 991 1019 1311 708 
Q 1631 397 2203 397 
Q 2534 397 2845 478 
Q 3156 559 3463 722 
L 3463 178 
Q 3153 47 2828 -22 
Q 2503 -91 2169 -91 
Q 1331 -91 842 396 
Q 353 884 353 1716 
Q 353 2575 817 3079 
Q 1281 3584 2069 3584 
Q 2775 3584 3186 3129 
Q 3597 2675 3597 1894 
z
M 3022 2063 
Q 3016 2534 2758 2815 
Q 2500 3097 2075 3097 
Q 1594 3097 1305 2825 
Q 1016 2553 972 2059 
L 3022 2063 
z
" id="DejaVuSans-65" transform="scale(0.015625)"/>
       <path id="DejaVuSans-20" transform="scale(0.015625)"/>
       <path d="M 191 3500 
L 800 3500 
L 1894 563 
L 2988 3500 
L 3597 3500 
L 2284 0 
L 1503 0 
L 191 3500 
z
" id="DejaVuSans-76" transform="scale(0.015625)"/>
       <path d="M 544 1381 
L 544 3500 
L 1119 3500 
L 1119 1403 
Q 1119 906 1312 657 
Q 1506 409 1894 409 
Q 2359 409 2629 706 
Q 2900 1003 2900 1516 
L 2900 3500 
L 3475 3500 
L 3475 0 
L 2900 0 
L 2900 538 
Q 2691 219 2414 64 
Q 2138 -91 1772 -91 
Q 1169 -91 856 284 
Q 544 659 544 1381 
z
M 1991 3584 
L 1991 3584 
z
" id="DejaVuSans-75" transform="scale(0.015625)"/>
       <path d="M 2834 3397 
L 2834 2853 
Q 2591 2978 2328 3040 
Q 2066 3103 1784 3103 
Q 1356 3103 1142 2972 
Q 928 2841 928 2578 
Q 928 2378 1081 2264 
Q 1234 2150 1697 2047 
L 1894 2003 
Q 2506 1872 2764 1633 
Q 3022 1394 3022 966 
Q 3022 478 2636 193 
Q 2250 -91 1575 -91 
Q 1294 -91 989 -36 
Q 684 19 347 128 
L 347 722 
Q 666 556 975 473 
Q 1284 391 1588 391 
Q 1994 391 2212 530 
Q 2431 669 2431 922 
Q 2431 1156 2273 1281 
Q 2116 1406 1581 1522 
L 1381 1569 
Q 847 1681 609 1914 
Q 372 2147 372 2553 
Q 372 3047 722 3315 
Q 1072 3584 1716 3584 
Q 2034 3584 2315 3537 
Q 2597 3491 2834 3397 
z
" id="DejaVuSans-73" transform="scale(0.015625)"/>
      </defs>
      <use xlink:href="#DejaVuSans-56"/>
      <use x="60.658203" xlink:href="#DejaVuSans-61"/>
      <use x="121.9375" xlink:href="#DejaVuSans-72"/>
      <use x="163.050781" xlink:href="#DejaVuSans-69"/>
      <use x="190.833984" xlink:href="#DejaVuSans-61"/>
      <use x="252.113281" xlink:href="#DejaVuSans-62"/>
      <use x="315.589844" xlink:href="#DejaVuSans-6c"/>
      <use x="343.373047" xlink:href="#DejaVuSans-65"/>
      <use x="404.896484" xlink:href="#DejaVuSans-20"/>
      <use x="436.683594" xlink:href="#DejaVuSans-76"/>
      <use x="495.863281" xlink:href="#DejaVuSans-61"/>
      <use x="557.142578" xlink:href="#DejaVuSans-6c"/>
      <use x="584.925781" xlink:href="#DejaVuSans-75"/>
      <use x="648.304688" xlink:href="#DejaVuSans-65"/>
      <use x="709.828125" xlink:href="#DejaVuSans-73"/>
     </g>
    </g>
   </g>
   <g id="matplotlib.axis_2">
    <g id="ytick_1">
     <g id="line2d_13">
      <path clip-path="url(#pf713fe366a)" d="M 57.6 295.488312 
L 414.72 295.488312 
" style="fill:none;stroke:#b0b0b0;stroke-linecap:square;stroke-width:0.8;"/>
     </g>
     <g id="line2d_14">
      <defs>
       <path d="M 0 0 
L -3.5 0 
" id="mb6d9283c70" style="stroke:#000000;stroke-width:0.8;"/>
      </defs>
      <g>
       <use style="stroke:#000000;stroke-width:0.8;" x="57.6" xlink:href="#mb6d9283c70" y="295.488312"/>
      </g>
     </g>
     <g id="text_8">
      <!-- 0 -->
      <g transform="translate(44.2375 299.287531)scale(0.1 -0.1)">
       <use xlink:href="#DejaVuSans-30"/>
      </g>
     </g>
    </g>
    <g id="ytick_2">
     <g id="line2d_15">
      <path clip-path="url(#pf713fe366a)" d="M 57.6 260.926914 
L 414.72 260.926914 
" style="fill:none;stroke:#b0b0b0;stroke-linecap:square;stroke-width:0.8;"/>
     </g>
     <g id="line2d_16">
      <g>
       <use style="stroke:#000000;stroke-width:0.8;" x="57.6" xlink:href="#mb6d9283c70" y="260.926914"/>
      </g>
     </g>
     <g id="text_9">
      <!-- 50 -->
      <g transform="translate(37.875 264.726132)scale(0.1 -0.1)">
       <defs>
        <path d="M 691 4666 
L 3169 4666 
L 3169 4134 
L 1269 4134 
L 1269 2991 
Q 1406 3038 1543 3061 
Q 1681 3084 1819 3084 
Q 2600 3084 3056 2656 
Q 3513 2228 3513 1497 
Q 3513 744 3044 326 
Q 2575 -91 1722 -91 
Q 1428 -91 1123 -41 
Q 819 9 494 109 
L 494 744 
Q 775 591 1075 516 
Q 1375 441 1709 441 
Q 2250 441 2565 725 
Q 2881 1009 2881 1497 
Q 2881 1984 2565 2268 
Q 2250 2553 1709 2553 
Q 1456 2553 1204 2497 
Q 953 2441 691 2322 
L 691 4666 
z
" id="DejaVuSans-35" transform="scale(0.015625)"/>
       </defs>
       <use xlink:href="#DejaVuSans-35"/>
       <use x="63.623047" xlink:href="#DejaVuSans-30"/>
      </g>
     </g>
    </g>
    <g id="ytick_3">
     <g id="line2d_17">
      <path clip-path="url(#pf713fe366a)" d="M 57.6 226.365515 
L 414.72 226.365515 
" style="fill:none;stroke:#b0b0b0;stroke-linecap:square;stroke-width:0.8;"/>
     </g>
     <g id="line2d_18">
      <g>
       <use style="stroke:#000000;stroke-width:0.8;" x="57.6" xlink:href="#mb6d9283c70" y="226.365515"/>
      </g>
     </g>
     <g id="text_10">
      <!-- 100 -->
      <g transform="translate(31.5125 230.164734)scale(0.1 -0.1)">
       <use xlink:href="#DejaVuSans-31"/>
       <use x="63.623047" xlink:href="#DejaVuSans-30"/>
       <use x="127.246094" xlink:href="#DejaVuSans-30"/>
      </g>
     </g>
    </g>
    <g id="ytick_4">
     <g id="line2d_19">
      <path clip-path="url(#pf713fe366a)" d="M 57.6 191.804116 
L 414.72 191.804116 
" style="fill:none;stroke:#b0b0b0;stroke-linecap:square;stroke-width:0.8;"/>
     </g>
     <g id="line2d_20">
      <g>
       <use style="stroke:#000000;stroke-width:0.8;" x="57.6" xlink:href="#mb6d9283c70" y="191.804116"/>
      </g>
     </g>
     <g id="text_11">
      <!-- 150 -->
      <g transform="translate(31.5125 195.603335)scale(0.1 -0.1)">
       <use xlink:href="#DejaVuSans-31"/>
       <use x="63.623047" xlink:href="#DejaVuSans-35"/>
       <use x="127.246094" xlink:href="#DejaVuSans-30"/>
      </g>
     </g>
    </g>
    <g id="ytick_5">
     <g id="line2d_21">
      <path clip-path="url(#pf713fe366a)" d="M 57.6 157.242717 
L 414.72 157.242717 
" style="fill:none;stroke:#b0b0b0;stroke-linecap:square;stroke-width:0.8;"/>
     </g>
     <g id="line2d_22">
      <g>
       <use style="stroke:#000000;stroke-width:0.8;" x="57.6" xlink:href="#mb6d9283c70" y="157.242717"/>
      </g>
     </g>
     <g id="text_12">
      <!-- 200 -->
      <g transform="translate(31.5125 161.041936)scale(0.1 -0.1)">
       <use xlink:href="#DejaVuSans-32"/>
       <use x="63.623047" xlink:href="#DejaVuSans-30"/>
       <use x="127.246094" xlink:href="#DejaVuSans-30"/>
      </g>
     </g>
    </g>
    <g id="ytick_6">
     <g id="line2d_23">
      <path clip-path="url(#pf713fe366a)" d="M 57.6 122.681319 
L 414.72 122.681319 
" style="fill:none;stroke:#b0b0b0;stroke-linecap:square;stroke-width:0.8;"/>
     </g>
     <g id="line2d_24">
      <g>
       <use style="stroke:#000000;stroke-width:0.8;" x="57.6" xlink:href="#mb6d9283c70" y="122.681319"/>
      </g>
     </g>
     <g id="text_13">
      <!-- 250 -->
      <g transform="translate(31.5125 126.480537)scale(0.1 -0.1)">
       <use xlink:href="#DejaVuSans-32"/>
       <use x="63.623047" xlink:href="#DejaVuSans-35"/>
       <use x="127.246094" xlink:href="#DejaVuSans-30"/>
      </g>
     </g>
    </g>
    <g id="ytick_7">
     <g id="line2d_25">
      <path clip-path="url(#pf713fe366a)" d="M 57.6 88.11992 
L 414.72 88.11992 
" style="fill:none;stroke:#b0b0b0;stroke-linecap:square;stroke-width:0.8;"/>
     </g>
     <g id="line2d_26">
      <g>
       <use style="stroke:#000000;stroke-width:0.8;" x="57.6" xlink:href="#mb6d9283c70" y="88.11992"/>
      </g>
     </g>
     <g id="text_14">
      <!-- 300 -->
      <g transform="translate(31.5125 91.919139)scale(0.1 -0.1)">
       <defs>
        <path d="M 2597 2516 
Q 3050 2419 3304 2112 
Q 3559 1806 3559 1356 
Q 3559 666 3084 287 
Q 2609 -91 1734 -91 
Q 1441 -91 1130 -33 
Q 819 25 488 141 
L 488 750 
Q 750 597 1062 519 
Q 1375 441 1716 441 
Q 2309 441 2620 675 
Q 2931 909 2931 1356 
Q 2931 1769 2642 2001 
Q 2353 2234 1838 2234 
L 1294 2234 
L 1294 2753 
L 1863 2753 
Q 2328 2753 2575 2939 
Q 2822 3125 2822 3475 
Q 2822 3834 2567 4026 
Q 2313 4219 1838 4219 
Q 1578 4219 1281 4162 
Q 984 4106 628 3988 
L 628 4550 
Q 988 4650 1302 4700 
Q 1616 4750 1894 4750 
Q 2613 4750 3031 4423 
Q 3450 4097 3450 3541 
Q 3450 3153 3228 2886 
Q 3006 2619 2597 2516 
z
" id="DejaVuSans-33" transform="scale(0.015625)"/>
       </defs>
       <use xlink:href="#DejaVuSans-33"/>
       <use x="63.623047" xlink:href="#DejaVuSans-30"/>
       <use x="127.246094" xlink:href="#DejaVuSans-30"/>
      </g>
     </g>
    </g>
    <g id="ytick_8">
     <g id="line2d_27">
      <path clip-path="url(#pf713fe366a)" d="M 57.6 53.558521 
L 414.72 53.558521 
" style="fill:none;stroke:#b0b0b0;stroke-linecap:square;stroke-width:0.8;"/>
     </g>
     <g id="line2d_28">
      <g>
       <use style="stroke:#000000;stroke-width:0.8;" x="57.6" xlink:href="#mb6d9283c70" y="53.558521"/>
      </g>
     </g>
     <g id="text_15">
      <!-- 350 -->
      <g transform="translate(31.5125 57.35774)scale(0.1 -0.1)">
       <use xlink:href="#DejaVuSans-33"/>
       <use x="63.623047" xlink:href="#DejaVuSans-35"/>
       <use x="127.246094" xlink:href="#DejaVuSans-30"/>
      </g>
     </g>
    </g>
    <g id="text_16">
     <!-- Time [s] -->
     <g transform="translate(24.600937 202.988469)rotate(-90)scale(0.14 -0.14)">
      <defs>
       <path d="M -19 4666 
L 3928 4666 
L 3928 4134 
L 2272 4134 
L 2272 0 
L 1638 0 
L 1638 4134 
L -19 4134 
L -19 4666 
z
" id="DejaVuSans-54" transform="scale(0.015625)"/>
       <path d="M 3328 2828 
Q 3544 3216 3844 3400 
Q 4144 3584 4550 3584 
Q 5097 3584 5394 3201 
Q 5691 2819 5691 2113 
L 5691 0 
L 5113 0 
L 5113 2094 
Q 5113 2597 4934 2840 
Q 4756 3084 4391 3084 
Q 3944 3084 3684 2787 
Q 3425 2491 3425 1978 
L 3425 0 
L 2847 0 
L 2847 2094 
Q 2847 2600 2669 2842 
Q 2491 3084 2119 3084 
Q 1678 3084 1418 2786 
Q 1159 2488 1159 1978 
L 1159 0 
L 581 0 
L 581 3500 
L 1159 3500 
L 1159 2956 
Q 1356 3278 1631 3431 
Q 1906 3584 2284 3584 
Q 2666 3584 2933 3390 
Q 3200 3197 3328 2828 
z
" id="DejaVuSans-6d" transform="scale(0.015625)"/>
       <path d="M 550 4863 
L 1875 4863 
L 1875 4416 
L 1125 4416 
L 1125 -397 
L 1875 -397 
L 1875 -844 
L 550 -844 
L 550 4863 
z
" id="DejaVuSans-5b" transform="scale(0.015625)"/>
       <path d="M 1947 4863 
L 1947 -844 
L 622 -844 
L 622 -397 
L 1369 -397 
L 1369 4416 
L 622 4416 
L 622 4863 
L 1947 4863 
z
" id="DejaVuSans-5d" transform="scale(0.015625)"/>
      </defs>
      <use xlink:href="#DejaVuSans-54"/>
      <use x="57.958984" xlink:href="#DejaVuSans-69"/>
      <use x="85.742188" xlink:href="#DejaVuSans-6d"/>
      <use x="183.154297" xlink:href="#DejaVuSans-65"/>
      <use x="244.677734" xlink:href="#DejaVuSans-20"/>
      <use x="276.464844" xlink:href="#DejaVuSans-5b"/>
      <use x="315.478516" xlink:href="#DejaVuSans-73"/>
      <use x="367.578125" xlink:href="#DejaVuSans-5d"/>
     </g>
    </g>
   </g>
   <g id="LineCollection_1">
    <path clip-path="url(#pf713fe366a)" d="M 67.818026 295.484677 
L 67.818026 295.480907 
" style="fill:none;stroke:#00008b;stroke-width:1.5;"/>
    <path clip-path="url(#pf713fe366a)" d="M 91.660086 295.46637 
L 91.660086 295.4266 
" style="fill:none;stroke:#00008b;stroke-width:1.5;"/>
    <path clip-path="url(#pf713fe366a)" d="M 125.720172 295.360726 
L 125.720172 295.197536 
" style="fill:none;stroke:#00008b;stroke-width:1.5;"/>
    <path clip-path="url(#pf713fe366a)" d="M 159.780258 294.995959 
L 159.780258 294.569993 
" style="fill:none;stroke:#00008b;stroke-width:1.5;"/>
    <path clip-path="url(#pf713fe366a)" d="M 193.840343 294.145087 
L 193.840343 293.335822 
" style="fill:none;stroke:#00008b;stroke-width:1.5;"/>
    <path clip-path="url(#pf713fe366a)" d="M 227.900429 292.627693 
L 227.900429 291.350325 
" style="fill:none;stroke:#00008b;stroke-width:1.5;"/>
    <path clip-path="url(#pf713fe366a)" d="M 261.960515 290.384519 
L 261.960515 288.537662 
" style="fill:none;stroke:#00008b;stroke-width:1.5;"/>
    <path clip-path="url(#pf713fe366a)" d="M 296.020601 287.183745 
L 296.020601 284.769343 
" style="fill:none;stroke:#00008b;stroke-width:1.5;"/>
    <path clip-path="url(#pf713fe366a)" d="M 330.080687 283.124689 
L 330.080687 280.210841 
" style="fill:none;stroke:#00008b;stroke-width:1.5;"/>
    <path clip-path="url(#pf713fe366a)" d="M 364.140773 278.065868 
L 364.140773 274.321332 
" style="fill:none;stroke:#00008b;stroke-width:1.5;"/>
    <path clip-path="url(#pf713fe366a)" d="M 398.200858 271.988983 
L 398.200858 267.472562 
" style="fill:none;stroke:#00008b;stroke-width:1.5;"/>
   </g>
   <g id="LineCollection_2">
    <path clip-path="url(#pf713fe366a)" d="M 67.818026 295.485305 
L 67.818026 295.479431 
" style="fill:none;stroke:#8b0000;stroke-width:1.5;"/>
    <path clip-path="url(#pf713fe366a)" d="M 91.660086 295.438588 
L 91.660086 295.357308 
" style="fill:none;stroke:#8b0000;stroke-width:1.5;"/>
    <path clip-path="url(#pf713fe366a)" d="M 125.720172 295.134024 
L 125.720172 294.714868 
" style="fill:none;stroke:#8b0000;stroke-width:1.5;"/>
    <path clip-path="url(#pf713fe366a)" d="M 159.780258 294.014986 
L 159.780258 292.703108 
" style="fill:none;stroke:#8b0000;stroke-width:1.5;"/>
    <path clip-path="url(#pf713fe366a)" d="M 193.840343 291.094734 
L 193.840343 288.129061 
" style="fill:none;stroke:#8b0000;stroke-width:1.5;"/>
    <path clip-path="url(#pf713fe366a)" d="M 227.900429 284.95867 
L 227.900429 279.694913 
" style="fill:none;stroke:#8b0000;stroke-width:1.5;"/>
    <path clip-path="url(#pf713fe366a)" d="M 261.960515 274.2956 
L 261.960515 265.210763 
" style="fill:none;stroke:#8b0000;stroke-width:1.5;"/>
    <path clip-path="url(#pf713fe366a)" d="M 296.020601 256.83647 
L 296.020601 241.575148 
" style="fill:none;stroke:#8b0000;stroke-width:1.5;"/>
    <path clip-path="url(#pf713fe366a)" d="M 330.080687 225.716272 
L 330.080687 205.09943 
" style="fill:none;stroke:#8b0000;stroke-width:1.5;"/>
    <path clip-path="url(#pf713fe366a)" d="M 364.140773 190.317901 
L 364.140773 158.319705 
" style="fill:none;stroke:#8b0000;stroke-width:1.5;"/>
    <path clip-path="url(#pf713fe366a)" d="M 398.200858 135.28838 
L 398.200858 53.568 
" style="fill:none;stroke:#8b0000;stroke-width:1.5;"/>
   </g>
   <g id="LineCollection_3">
    <path clip-path="url(#pf713fe366a)" d="M 67.818026 295.488 
L 67.818026 295.486273 
" style="fill:none;stroke:#ffa500;stroke-width:1.5;"/>
    <path clip-path="url(#pf713fe366a)" d="M 91.660086 295.481849 
L 91.660086 295.470762 
" style="fill:none;stroke:#ffa500;stroke-width:1.5;"/>
    <path clip-path="url(#pf713fe366a)" d="M 125.720172 295.454397 
L 125.720172 295.422508 
" style="fill:none;stroke:#ffa500;stroke-width:1.5;"/>
    <path clip-path="url(#pf713fe366a)" d="M 159.780258 295.394384 
L 159.780258 295.343369 
" style="fill:none;stroke:#ffa500;stroke-width:1.5;"/>
    <path clip-path="url(#pf713fe366a)" d="M 193.840343 295.303336 
L 193.840343 295.2264 
" style="fill:none;stroke:#ffa500;stroke-width:1.5;"/>
    <path clip-path="url(#pf713fe366a)" d="M 227.900429 295.14826 
L 227.900429 295.065132 
" style="fill:none;stroke:#ffa500;stroke-width:1.5;"/>
    <path clip-path="url(#pf713fe366a)" d="M 261.960515 294.96978 
L 261.960515 294.8621 
" style="fill:none;stroke:#ffa500;stroke-width:1.5;"/>
    <path clip-path="url(#pf713fe366a)" d="M 296.020601 294.75049 
L 296.020601 294.609595 
" style="fill:none;stroke:#ffa500;stroke-width:1.5;"/>
    <path clip-path="url(#pf713fe366a)" d="M 330.080687 294.482124 
L 330.080687 294.333889 
" style="fill:none;stroke:#ffa500;stroke-width:1.5;"/>
    <path clip-path="url(#pf713fe366a)" d="M 364.140773 294.200609 
L 364.140773 294.107824 
" style="fill:none;stroke:#ffa500;stroke-width:1.5;"/>
    <path clip-path="url(#pf713fe366a)" d="M 398.200858 293.970617 
L 398.200858 293.766853 
" style="fill:none;stroke:#ffa500;stroke-width:1.5;"/>
   </g>
   <g id="LineCollection_4">
    <path clip-path="url(#pf713fe366a)" d="M 67.818026 295.481101 
L 67.818026 295.465838 
" style="fill:none;stroke:#008000;stroke-width:1.5;"/>
    <path clip-path="url(#pf713fe366a)" d="M 91.660086 295.450529 
L 91.660086 295.414881 
" style="fill:none;stroke:#008000;stroke-width:1.5;"/>
    <path clip-path="url(#pf713fe366a)" d="M 125.720172 295.388566 
L 125.720172 295.335163 
" style="fill:none;stroke:#008000;stroke-width:1.5;"/>
    <path clip-path="url(#pf713fe366a)" d="M 159.780258 295.295848 
L 159.780258 295.221358 
" style="fill:none;stroke:#008000;stroke-width:1.5;"/>
    <path clip-path="url(#pf713fe366a)" d="M 193.840343 295.167743 
L 193.840343 295.075243 
" style="fill:none;stroke:#008000;stroke-width:1.5;"/>
    <path clip-path="url(#pf713fe366a)" d="M 227.900429 294.988491 
L 227.900429 294.877708 
" style="fill:none;stroke:#008000;stroke-width:1.5;"/>
    <path clip-path="url(#pf713fe366a)" d="M 261.960515 294.788596 
L 261.960515 294.649306 
" style="fill:none;stroke:#008000;stroke-width:1.5;"/>
    <path clip-path="url(#pf713fe366a)" d="M 296.020601 294.535592 
L 296.020601 294.346401 
" style="fill:none;stroke:#008000;stroke-width:1.5;"/>
    <path clip-path="url(#pf713fe366a)" d="M 330.080687 294.229347 
L 330.080687 294.012284 
" style="fill:none;stroke:#008000;stroke-width:1.5;"/>
    <path clip-path="url(#pf713fe366a)" d="M 364.140773 293.868383 
L 364.140773 293.635838 
" style="fill:none;stroke:#008000;stroke-width:1.5;"/>
    <path clip-path="url(#pf713fe366a)" d="M 398.200858 293.509556 
L 398.200858 293.23037 
" style="fill:none;stroke:#008000;stroke-width:1.5;"/>
   </g>
   <g id="line2d_29">
    <path clip-path="url(#pf713fe366a)" d="M 67.818026 295.482792 
L 91.660086 295.446485 
L 125.720172 295.279131 
L 159.780258 294.782976 
L 193.840343 293.740455 
L 227.900429 291.989009 
L 261.960515 289.46109 
L 296.020601 285.976544 
L 330.080687 281.667765 
L 364.140773 276.1936 
L 398.200858 269.730772 
" style="fill:none;stroke:#00008b;stroke-linecap:square;stroke-width:1.5;"/>
    <defs>
     <path d="M 0 3 
C 0.795609 3 1.55874 2.683901 2.12132 2.12132 
C 2.683901 1.55874 3 0.795609 3 0 
C 3 -0.795609 2.683901 -1.55874 2.12132 -2.12132 
C 1.55874 -2.683901 0.795609 -3 0 -3 
C -0.795609 -3 -1.55874 -2.683901 -2.12132 -2.12132 
C -2.683901 -1.55874 -3 -0.795609 -3 0 
C -3 0.795609 -2.683901 1.55874 -2.12132 2.12132 
C -1.55874 2.683901 -0.795609 3 0 3 
z
" id="m589838d5df" style="stroke:#00008b;"/>
    </defs>
    <g clip-path="url(#pf713fe366a)">
     <use style="fill:#00008b;stroke:#00008b;" x="67.818026" xlink:href="#m589838d5df" y="295.482792"/>
     <use style="fill:#00008b;stroke:#00008b;" x="91.660086" xlink:href="#m589838d5df" y="295.446485"/>
     <use style="fill:#00008b;stroke:#00008b;" x="125.720172" xlink:href="#m589838d5df" y="295.279131"/>
     <use style="fill:#00008b;stroke:#00008b;" x="159.780258" xlink:href="#m589838d5df" y="294.782976"/>
     <use style="fill:#00008b;stroke:#00008b;" x="193.840343" xlink:href="#m589838d5df" y="293.740455"/>
     <use style="fill:#00008b;stroke:#00008b;" x="227.900429" xlink:href="#m589838d5df" y="291.989009"/>
     <use style="fill:#00008b;stroke:#00008b;" x="261.960515" xlink:href="#m589838d5df" y="289.46109"/>
     <use style="fill:#00008b;stroke:#00008b;" x="296.020601" xlink:href="#m589838d5df" y="285.976544"/>
     <use style="fill:#00008b;stroke:#00008b;" x="330.080687" xlink:href="#m589838d5df" y="281.667765"/>
     <use style="fill:#00008b;stroke:#00008b;" x="364.140773" xlink:href="#m589838d5df" y="276.1936"/>
     <use style="fill:#00008b;stroke:#00008b;" x="398.200858" xlink:href="#m589838d5df" y="269.730772"/>
    </g>
   </g>
   <g id="line2d_30">
    <path clip-path="url(#pf713fe366a)" d="M 67.818026 295.482368 
L 91.660086 295.397948 
L 125.720172 294.924446 
L 159.780258 293.359047 
L 193.840343 289.611898 
L 227.900429 282.326792 
L 261.960515 269.753181 
L 296.020601 249.205809 
L 330.080687 215.407851 
L 364.140773 174.318803 
L 398.200858 94.42819 
" style="fill:none;stroke:#8b0000;stroke-linecap:square;stroke-width:1.5;"/>
    <defs>
     <path d="M -0 4.242641 
L 2.545584 0 
L 0 -4.242641 
L -2.545584 -0 
z
" id="mc86a4f8a78" style="stroke:#8b0000;stroke-linejoin:miter;"/>
    </defs>
    <g clip-path="url(#pf713fe366a)">
     <use style="fill:#8b0000;stroke:#8b0000;stroke-linejoin:miter;" x="67.818026" xlink:href="#mc86a4f8a78" y="295.482368"/>
     <use style="fill:#8b0000;stroke:#8b0000;stroke-linejoin:miter;" x="91.660086" xlink:href="#mc86a4f8a78" y="295.397948"/>
     <use style="fill:#8b0000;stroke:#8b0000;stroke-linejoin:miter;" x="125.720172" xlink:href="#mc86a4f8a78" y="294.924446"/>
     <use style="fill:#8b0000;stroke:#8b0000;stroke-linejoin:miter;" x="159.780258" xlink:href="#mc86a4f8a78" y="293.359047"/>
     <use style="fill:#8b0000;stroke:#8b0000;stroke-linejoin:miter;" x="193.840343" xlink:href="#mc86a4f8a78" y="289.611898"/>
     <use style="fill:#8b0000;stroke:#8b0000;stroke-linejoin:miter;" x="227.900429" xlink:href="#mc86a4f8a78" y="282.326792"/>
     <use style="fill:#8b0000;stroke:#8b0000;stroke-linejoin:miter;" x="261.960515" xlink:href="#mc86a4f8a78" y="269.753181"/>
     <use style="fill:#8b0000;stroke:#8b0000;stroke-linejoin:miter;" x="296.020601" xlink:href="#mc86a4f8a78" y="249.205809"/>
     <use style="fill:#8b0000;stroke:#8b0000;stroke-linejoin:miter;" x="330.080687" xlink:href="#mc86a4f8a78" y="215.407851"/>
     <use style="fill:#8b0000;stroke:#8b0000;stroke-linejoin:miter;" x="364.140773" xlink:href="#mc86a4f8a78" y="174.318803"/>
     <use style="fill:#8b0000;stroke:#8b0000;stroke-linejoin:miter;" x="398.200858" xlink:href="#mc86a4f8a78" y="94.42819"/>
    </g>
   </g>
   <g id="line2d_31">
    <path clip-path="url(#pf713fe366a)" d="M 67.818026 295.487137 
L 91.660086 295.476305 
L 125.720172 295.438452 
L 159.780258 295.368876 
L 193.840343 295.264868 
L 227.900429 295.106696 
L 261.960515 294.91594 
L 296.020601 294.680043 
L 330.080687 294.408006 
L 364.140773 294.154217 
L 398.200858 293.868735 
" style="fill:none;stroke:#ffa500;stroke-linecap:square;stroke-width:1.5;"/>
    <defs>
     <path d="M 0 -3 
L -2.85317 -0.927051 
L -1.763356 2.427051 
L 1.763356 2.427051 
L 2.85317 -0.927051 
z
" id="m947719e12f" style="stroke:#ffa500;stroke-linejoin:miter;"/>
    </defs>
    <g clip-path="url(#pf713fe366a)">
     <use style="fill:#ffa500;stroke:#ffa500;stroke-linejoin:miter;" x="67.818026" xlink:href="#m947719e12f" y="295.487137"/>
     <use style="fill:#ffa500;stroke:#ffa500;stroke-linejoin:miter;" x="91.660086" xlink:href="#m947719e12f" y="295.476305"/>
     <use style="fill:#ffa500;stroke:#ffa500;stroke-linejoin:miter;" x="125.720172" xlink:href="#m947719e12f" y="295.438452"/>
     <use style="fill:#ffa500;stroke:#ffa500;stroke-linejoin:miter;" x="159.780258" xlink:href="#m947719e12f" y="295.368876"/>
     <use style="fill:#ffa500;stroke:#ffa500;stroke-linejoin:miter;" x="193.840343" xlink:href="#m947719e12f" y="295.264868"/>
     <use style="fill:#ffa500;stroke:#ffa500;stroke-linejoin:miter;" x="227.900429" xlink:href="#m947719e12f" y="295.106696"/>
     <use style="fill:#ffa500;stroke:#ffa500;stroke-linejoin:miter;" x="261.960515" xlink:href="#m947719e12f" y="294.91594"/>
     <use style="fill:#ffa500;stroke:#ffa500;stroke-linejoin:miter;" x="296.020601" xlink:href="#m947719e12f" y="294.680043"/>
     <use style="fill:#ffa500;stroke:#ffa500;stroke-linejoin:miter;" x="330.080687" xlink:href="#m947719e12f" y="294.408006"/>
     <use style="fill:#ffa500;stroke:#ffa500;stroke-linejoin:miter;" x="364.140773" xlink:href="#m947719e12f" y="294.154217"/>
     <use style="fill:#ffa500;stroke:#ffa500;stroke-linejoin:miter;" x="398.200858" xlink:href="#m947719e12f" y="293.868735"/>
    </g>
   </g>
   <g id="line2d_32">
    <path clip-path="url(#pf713fe366a)" d="M 67.818026 295.473469 
L 91.660086 295.432705 
L 125.720172 295.361865 
L 159.780258 295.258603 
L 193.840343 295.121493 
L 227.900429 294.933099 
L 261.960515 294.718951 
L 296.020601 294.440996 
L 330.080687 294.120815 
L 364.140773 293.752111 
L 398.200858 293.369963 
" style="fill:none;stroke:#008000;stroke-linecap:square;stroke-width:1.5;"/>
    <defs>
     <path d="M -3 3 
L 3 3 
L 3 -3 
L -3 -3 
z
" id="m3cb5fe257e" style="stroke:#008000;stroke-linejoin:miter;"/>
    </defs>
    <g clip-path="url(#pf713fe366a)">
     <use style="fill:#008000;stroke:#008000;stroke-linejoin:miter;" x="67.818026" xlink:href="#m3cb5fe257e" y="295.473469"/>
     <use style="fill:#008000;stroke:#008000;stroke-linejoin:miter;" x="91.660086" xlink:href="#m3cb5fe257e" y="295.432705"/>
     <use style="fill:#008000;stroke:#008000;stroke-linejoin:miter;" x="125.720172" xlink:href="#m3cb5fe257e" y="295.361865"/>
     <use style="fill:#008000;stroke:#008000;stroke-linejoin:miter;" x="159.780258" xlink:href="#m3cb5fe257e" y="295.258603"/>
     <use style="fill:#008000;stroke:#008000;stroke-linejoin:miter;" x="193.840343" xlink:href="#m3cb5fe257e" y="295.121493"/>
     <use style="fill:#008000;stroke:#008000;stroke-linejoin:miter;" x="227.900429" xlink:href="#m3cb5fe257e" y="294.933099"/>
     <use style="fill:#008000;stroke:#008000;stroke-linejoin:miter;" x="261.960515" xlink:href="#m3cb5fe257e" y="294.718951"/>
     <use style="fill:#008000;stroke:#008000;stroke-linejoin:miter;" x="296.020601" xlink:href="#m3cb5fe257e" y="294.440996"/>
     <use style="fill:#008000;stroke:#008000;stroke-linejoin:miter;" x="330.080687" xlink:href="#m3cb5fe257e" y="294.120815"/>
     <use style="fill:#008000;stroke:#008000;stroke-linejoin:miter;" x="364.140773" xlink:href="#m3cb5fe257e" y="293.752111"/>
     <use style="fill:#008000;stroke:#008000;stroke-linejoin:miter;" x="398.200858" xlink:href="#m3cb5fe257e" y="293.369963"/>
    </g>
   </g>
   <g id="patch_3">
    <path d="M 57.6 307.584 
L 57.6 41.472 
" style="fill:none;stroke:#000000;stroke-linecap:square;stroke-linejoin:miter;stroke-width:0.8;"/>
   </g>
   <g id="patch_4">
    <path d="M 414.72 307.584 
L 414.72 41.472 
" style="fill:none;stroke:#000000;stroke-linecap:square;stroke-linejoin:miter;stroke-width:0.8;"/>
   </g>
   <g id="patch_5">
    <path d="M 57.6 307.584 
L 414.72 307.584 
" style="fill:none;stroke:#000000;stroke-linecap:square;stroke-linejoin:miter;stroke-width:0.8;"/>
   </g>
   <g id="patch_6">
    <path d="M 57.6 41.472 
L 414.72 41.472 
" style="fill:none;stroke:#000000;stroke-linecap:square;stroke-linejoin:miter;stroke-width:0.8;"/>
   </g>
   <g id="legend_1">
    <g id="patch_7">
     <path d="M 64.6 108.1845 
L 201.59375 108.1845 
Q 203.59375 108.1845 203.59375 106.1845 
L 203.59375 48.472 
Q 203.59375 46.472 201.59375 46.472 
L 64.6 46.472 
Q 62.6 46.472 62.6 48.472 
L 62.6 106.1845 
Q 62.6 108.1845 64.6 108.1845 
z
" style="fill:#ffffff;opacity:0.8;stroke:#cccccc;stroke-linejoin:miter;"/>
    </g>
    <g id="LineCollection_5">
     <path d="M 76.6 59.570438 
L 76.6 49.570438 
" style="fill:none;stroke:#00008b;stroke-width:1.5;"/>
    </g>
    <g id="line2d_33">
     <path d="M 66.6 54.570438 
L 86.6 54.570438 
" style="fill:none;stroke:#00008b;stroke-linecap:square;stroke-width:1.5;"/>
    </g>
    <g id="line2d_34">
     <g>
      <use style="fill:#00008b;stroke:#00008b;" x="76.6" xlink:href="#m589838d5df" y="54.570438"/>
     </g>
    </g>
    <g id="text_17">
     <!-- Number of values -->
     <g transform="translate(94.6 58.070438)scale(0.1 -0.1)">
      <defs>
       <path d="M 628 4666 
L 1478 4666 
L 3547 763 
L 3547 4666 
L 4159 4666 
L 4159 0 
L 3309 0 
L 1241 3903 
L 1241 0 
L 628 0 
L 628 4666 
z
" id="DejaVuSans-4e" transform="scale(0.015625)"/>
       <path d="M 1959 3097 
Q 1497 3097 1228 2736 
Q 959 2375 959 1747 
Q 959 1119 1226 758 
Q 1494 397 1959 397 
Q 2419 397 2687 759 
Q 2956 1122 2956 1747 
Q 2956 2369 2687 2733 
Q 2419 3097 1959 3097 
z
M 1959 3584 
Q 2709 3584 3137 3096 
Q 3566 2609 3566 1747 
Q 3566 888 3137 398 
Q 2709 -91 1959 -91 
Q 1206 -91 779 398 
Q 353 888 353 1747 
Q 353 2609 779 3096 
Q 1206 3584 1959 3584 
z
" id="DejaVuSans-6f" transform="scale(0.015625)"/>
       <path d="M 2375 4863 
L 2375 4384 
L 1825 4384 
Q 1516 4384 1395 4259 
Q 1275 4134 1275 3809 
L 1275 3500 
L 2222 3500 
L 2222 3053 
L 1275 3053 
L 1275 0 
L 697 0 
L 697 3053 
L 147 3053 
L 147 3500 
L 697 3500 
L 697 3744 
Q 697 4328 969 4595 
Q 1241 4863 1831 4863 
L 2375 4863 
z
" id="DejaVuSans-66" transform="scale(0.015625)"/>
      </defs>
      <use xlink:href="#DejaVuSans-4e"/>
      <use x="74.804688" xlink:href="#DejaVuSans-75"/>
      <use x="138.183594" xlink:href="#DejaVuSans-6d"/>
      <use x="235.595703" xlink:href="#DejaVuSans-62"/>
      <use x="299.072266" xlink:href="#DejaVuSans-65"/>
      <use x="360.595703" xlink:href="#DejaVuSans-72"/>
      <use x="401.708984" xlink:href="#DejaVuSans-20"/>
      <use x="433.496094" xlink:href="#DejaVuSans-6f"/>
      <use x="494.677734" xlink:href="#DejaVuSans-66"/>
      <use x="529.882812" xlink:href="#DejaVuSans-20"/>
      <use x="561.669922" xlink:href="#DejaVuSans-76"/>
      <use x="620.849609" xlink:href="#DejaVuSans-61"/>
      <use x="682.128906" xlink:href="#DejaVuSans-6c"/>
      <use x="709.912109" xlink:href="#DejaVuSans-75"/>
      <use x="773.291016" xlink:href="#DejaVuSans-65"/>
      <use x="834.814453" xlink:href="#DejaVuSans-73"/>
     </g>
    </g>
    <g id="LineCollection_6">
     <path d="M 76.6 74.248563 
L 76.6 64.248563 
" style="fill:none;stroke:#8b0000;stroke-width:1.5;"/>
    </g>
    <g id="line2d_35">
     <path d="M 66.6 69.248563 
L 86.6 69.248563 
" style="fill:none;stroke:#8b0000;stroke-linecap:square;stroke-width:1.5;"/>
    </g>
    <g id="line2d_36">
     <g>
      <use style="fill:#8b0000;stroke:#8b0000;stroke-linejoin:miter;" x="76.6" xlink:href="#mc86a4f8a78" y="69.248563"/>
     </g>
    </g>
    <g id="text_18">
     <!-- Number of attributes -->
     <g transform="translate(94.6 72.748563)scale(0.1 -0.1)">
      <defs>
       <path d="M 1172 4494 
L 1172 3500 
L 2356 3500 
L 2356 3053 
L 1172 3053 
L 1172 1153 
Q 1172 725 1289 603 
Q 1406 481 1766 481 
L 2356 481 
L 2356 0 
L 1766 0 
Q 1100 0 847 248 
Q 594 497 594 1153 
L 594 3053 
L 172 3053 
L 172 3500 
L 594 3500 
L 594 4494 
L 1172 4494 
z
" id="DejaVuSans-74" transform="scale(0.015625)"/>
      </defs>
      <use xlink:href="#DejaVuSans-4e"/>
      <use x="74.804688" xlink:href="#DejaVuSans-75"/>
      <use x="138.183594" xlink:href="#DejaVuSans-6d"/>
      <use x="235.595703" xlink:href="#DejaVuSans-62"/>
      <use x="299.072266" xlink:href="#DejaVuSans-65"/>
      <use x="360.595703" xlink:href="#DejaVuSans-72"/>
      <use x="401.708984" xlink:href="#DejaVuSans-20"/>
      <use x="433.496094" xlink:href="#DejaVuSans-6f"/>
      <use x="494.677734" xlink:href="#DejaVuSans-66"/>
      <use x="529.882812" xlink:href="#DejaVuSans-20"/>
      <use x="561.669922" xlink:href="#DejaVuSans-61"/>
      <use x="622.949219" xlink:href="#DejaVuSans-74"/>
      <use x="662.158203" xlink:href="#DejaVuSans-74"/>
      <use x="701.367188" xlink:href="#DejaVuSans-72"/>
      <use x="742.480469" xlink:href="#DejaVuSans-69"/>
      <use x="770.263672" xlink:href="#DejaVuSans-62"/>
      <use x="833.740234" xlink:href="#DejaVuSans-75"/>
      <use x="897.119141" xlink:href="#DejaVuSans-74"/>
      <use x="936.328125" xlink:href="#DejaVuSans-65"/>
      <use x="997.851562" xlink:href="#DejaVuSans-73"/>
     </g>
    </g>
    <g id="LineCollection_7">
     <path d="M 76.6 88.926688 
L 76.6 78.926688 
" style="fill:none;stroke:#ffa500;stroke-width:1.5;"/>
    </g>
    <g id="line2d_37">
     <path d="M 66.6 83.926688 
L 86.6 83.926688 
" style="fill:none;stroke:#ffa500;stroke-linecap:square;stroke-width:1.5;"/>
    </g>
    <g id="line2d_38">
     <g>
      <use style="fill:#ffa500;stroke:#ffa500;stroke-linejoin:miter;" x="76.6" xlink:href="#m947719e12f" y="83.926688"/>
     </g>
    </g>
    <g id="text_19">
     <!-- Number of rules -->
     <g transform="translate(94.6 87.426688)scale(0.1 -0.1)">
      <use xlink:href="#DejaVuSans-4e"/>
      <use x="74.804688" xlink:href="#DejaVuSans-75"/>
      <use x="138.183594" xlink:href="#DejaVuSans-6d"/>
      <use x="235.595703" xlink:href="#DejaVuSans-62"/>
      <use x="299.072266" xlink:href="#DejaVuSans-65"/>
      <use x="360.595703" xlink:href="#DejaVuSans-72"/>
      <use x="401.708984" xlink:href="#DejaVuSans-20"/>
      <use x="433.496094" xlink:href="#DejaVuSans-6f"/>
      <use x="494.677734" xlink:href="#DejaVuSans-66"/>
      <use x="529.882812" xlink:href="#DejaVuSans-20"/>
      <use x="561.669922" xlink:href="#DejaVuSans-72"/>
      <use x="602.783203" xlink:href="#DejaVuSans-75"/>
      <use x="666.162109" xlink:href="#DejaVuSans-6c"/>
      <use x="693.945312" xlink:href="#DejaVuSans-65"/>
      <use x="755.46875" xlink:href="#DejaVuSans-73"/>
     </g>
    </g>
    <g id="LineCollection_8">
     <path d="M 76.6 103.604813 
L 76.6 93.604813 
" style="fill:none;stroke:#008000;stroke-width:1.5;"/>
    </g>
    <g id="line2d_39">
     <path d="M 66.6 98.604813 
L 86.6 98.604813 
" style="fill:none;stroke:#008000;stroke-linecap:square;stroke-width:1.5;"/>
    </g>
    <g id="line2d_40">
     <g>
      <use style="fill:#008000;stroke:#008000;stroke-linejoin:miter;" x="76.6" xlink:href="#m3cb5fe257e" y="98.604813"/>
     </g>
    </g>
    <g id="text_20">
     <!-- Length of attributes -->
     <g transform="translate(94.6 102.104813)scale(0.1 -0.1)">
      <defs>
       <path d="M 628 4666 
L 1259 4666 
L 1259 531 
L 3531 531 
L 3531 0 
L 628 0 
L 628 4666 
z
" id="DejaVuSans-4c" transform="scale(0.015625)"/>
       <path d="M 3513 2113 
L 3513 0 
L 2938 0 
L 2938 2094 
Q 2938 2591 2744 2837 
Q 2550 3084 2163 3084 
Q 1697 3084 1428 2787 
Q 1159 2491 1159 1978 
L 1159 0 
L 581 0 
L 581 3500 
L 1159 3500 
L 1159 2956 
Q 1366 3272 1645 3428 
Q 1925 3584 2291 3584 
Q 2894 3584 3203 3211 
Q 3513 2838 3513 2113 
z
" id="DejaVuSans-6e" transform="scale(0.015625)"/>
       <path d="M 2906 1791 
Q 2906 2416 2648 2759 
Q 2391 3103 1925 3103 
Q 1463 3103 1205 2759 
Q 947 2416 947 1791 
Q 947 1169 1205 825 
Q 1463 481 1925 481 
Q 2391 481 2648 825 
Q 2906 1169 2906 1791 
z
M 3481 434 
Q 3481 -459 3084 -895 
Q 2688 -1331 1869 -1331 
Q 1566 -1331 1297 -1286 
Q 1028 -1241 775 -1147 
L 775 -588 
Q 1028 -725 1275 -790 
Q 1522 -856 1778 -856 
Q 2344 -856 2625 -561 
Q 2906 -266 2906 331 
L 2906 616 
Q 2728 306 2450 153 
Q 2172 0 1784 0 
Q 1141 0 747 490 
Q 353 981 353 1791 
Q 353 2603 747 3093 
Q 1141 3584 1784 3584 
Q 2172 3584 2450 3431 
Q 2728 3278 2906 2969 
L 2906 3500 
L 3481 3500 
L 3481 434 
z
" id="DejaVuSans-67" transform="scale(0.015625)"/>
       <path d="M 3513 2113 
L 3513 0 
L 2938 0 
L 2938 2094 
Q 2938 2591 2744 2837 
Q 2550 3084 2163 3084 
Q 1697 3084 1428 2787 
Q 1159 2491 1159 1978 
L 1159 0 
L 581 0 
L 581 4863 
L 1159 4863 
L 1159 2956 
Q 1366 3272 1645 3428 
Q 1925 3584 2291 3584 
Q 2894 3584 3203 3211 
Q 3513 2838 3513 2113 
z
" id="DejaVuSans-68" transform="scale(0.015625)"/>
      </defs>
      <use xlink:href="#DejaVuSans-4c"/>
      <use x="53.962891" xlink:href="#DejaVuSans-65"/>
      <use x="115.486328" xlink:href="#DejaVuSans-6e"/>
      <use x="178.865234" xlink:href="#DejaVuSans-67"/>
      <use x="242.341797" xlink:href="#DejaVuSans-74"/>
      <use x="281.550781" xlink:href="#DejaVuSans-68"/>
      <use x="344.929688" xlink:href="#DejaVuSans-20"/>
      <use x="376.716797" xlink:href="#DejaVuSans-6f"/>
      <use x="437.898438" xlink:href="#DejaVuSans-66"/>
      <use x="473.103516" xlink:href="#DejaVuSans-20"/>
      <use x="504.890625" xlink:href="#DejaVuSans-61"/>
      <use x="566.169922" xlink:href="#DejaVuSans-74"/>
      <use x="605.378906" xlink:href="#DejaVuSans-74"/>
      <use x="644.587891" xlink:href="#DejaVuSans-72"/>
      <use x="685.701172" xlink:href="#DejaVuSans-69"/>
      <use x="713.484375" xlink:href="#DejaVuSans-62"/>
      <use x="776.960938" xlink:href="#DejaVuSans-75"/>
      <use x="840.339844" xlink:href="#DejaVuSans-74"/>
      <use x="879.548828" xlink:href="#DejaVuSans-65"/>
      <use x="941.072266" xlink:href="#DejaVuSans-73"/>
     </g>
    </g>
   </g>
  </g>
 </g>
 <defs>
  <clipPath id="pf713fe366a">
   <rect height="266.112" width="357.12" x="57.6" y="41.472"/>
  </clipPath>
 </defs>
</svg>
